<!-- Generated by IcoMoon.io -->
<svg version="1.1" xmlns="http://www.w3.org/2000/svg" width="32" height="32" viewBox="0 0 32 32">
<title>image2vector-1</title>
<path fill="#e4e4e4" d="M0.8 6.592c0 0.018-0.029 0.032-0.065 0.032-0.046 0-0.070 0.027-0.084 0.096-0.011 0.053-0.032 0.096-0.047 0.096-0.060 0-0.033 0.506 0.028 0.522 0.053 0.014 0.053 0.015 0 0.018-0.078 0.005-0.086 0.708-0.008 0.708 0.035 0 0.048 0.036 0.048 0.128s-0.013 0.128-0.048 0.128c-0.043 0-0.048 0.933-0.048 8.208s0.005 8.208 0.048 8.208c0.035 0 0.048 0.036 0.048 0.128s-0.013 0.128-0.048 0.128c-0.040 0-0.048 0.060-0.048 0.352s0.008 0.352 0.048 0.352c0.026 0 0.048 0.014 0.048 0.032s-0.022 0.032-0.048 0.032c-0.038 0-0.048 0.048-0.048 0.24 0 0.132 0.013 0.24 0.028 0.24s0.037 0.043 0.047 0.096c0.014 0.069 0.038 0.096 0.084 0.096 0.036 0 0.065 0.014 0.065 0.032 0 0.019 0.107 0.032 0.256 0.032 0.235 0 0.256-0.005 0.256-0.064 0-0.035 0.014-0.064 0.032-0.064s0.032 0.029 0.032 0.064c0 0.061 0.021 0.064 0.4 0.064s0.4-0.003 0.4-0.064c0-0.055 0.021-0.064 0.16-0.064s0.16 0.009 0.16 0.064c0 0.064 0.021 0.064 13.536 0.064s13.536-0 13.536-0.064c0-0.055 0.021-0.064 0.16-0.064s0.16 0.009 0.16 0.064c0 0.061 0.021 0.064 0.4 0.064s0.4-0.003 0.4-0.064c0-0.035 0.014-0.064 0.032-0.064s0.032 0.029 0.032 0.064c0 0.059 0.021 0.064 0.256 0.064 0.149 0 0.256-0.013 0.256-0.032 0-0.018 0.015-0.032 0.034-0.032 0.051 0 0.126-0.084 0.126-0.142 0-0.028 0.014-0.050 0.032-0.050s0.032-0.101 0.032-0.24c0-0.219-0.006-0.24-0.064-0.24-0.035 0-0.064-0.014-0.064-0.032s0.029-0.032 0.064-0.032c0.060 0 0.064-0.021 0.064-0.352s-0.004-0.352-0.064-0.352c-0.053 0-0.064-0.021-0.064-0.128s0.011-0.128 0.064-0.128c0.064 0 0.064-0.021 0.064-8.208s-0-8.208-0.064-8.208c-0.053 0-0.064-0.021-0.064-0.128s0.011-0.128 0.064-0.128c0.106 0 0.098-0.693-0.008-0.713l-0.072-0.014 0.072-0.004c0.077-0.005 0.117-0.516 0.040-0.516-0.018 0-0.032-0.023-0.032-0.050 0-0.057-0.075-0.142-0.126-0.142-0.019 0-0.034-0.014-0.034-0.032 0-0.019-0.107-0.032-0.256-0.032-0.235 0-0.256 0.005-0.256 0.064 0 0.035-0.014 0.064-0.032 0.064s-0.032-0.029-0.032-0.064c0-0.061-0.021-0.064-0.4-0.064s-0.4 0.003-0.4 0.064c0 0.055-0.021 0.064-0.16 0.064s-0.16-0.009-0.16-0.064c0-0.064-0.021-0.064-13.536-0.064s-13.536 0-13.536 0.064c0 0.055-0.021 0.064-0.16 0.064s-0.16-0.009-0.16-0.064c0-0.061-0.021-0.064-0.4-0.064s-0.4 0.003-0.4 0.064c0 0.035-0.014 0.064-0.032 0.064s-0.032-0.029-0.032-0.064c0-0.059-0.021-0.064-0.256-0.064-0.149 0-0.256 0.013-0.256 0.032zM0.864 6.77c0 0.010-0.022 0.041-0.050 0.068-0.062 0.062-0.1 0.031-0.042-0.035 0.044-0.049 0.091-0.067 0.091-0.033zM31.286 6.802c0.027 0.027 0.041 0.058 0.031 0.068-0.018 0.018-0.117-0.065-0.117-0.099 0-0.032 0.035-0.020 0.086 0.031zM27.552 12.496c0 1.355 0.011 2.064 0.032 2.064 0.018 0 0.032 0.028 0.032 0.061s0.018 0.070 0.040 0.080c0.032 0.015 0.032 0.022 0 0.037-0.022 0.010-0.040 0.046-0.040 0.080s-0.014 0.061-0.032 0.061-0.032-0.026-0.032-0.057c0-0.031-0.029-0.078-0.064-0.103s-0.064-0.072-0.064-0.103c0-0.069-0.052-0.074-0.114-0.011-0.058 0.059-0.058 0.082 0.002 0.082 0.026 0 0.048 0.025 0.048 0.056-0.001 0.076-0.054 0.156-0.085 0.125-0.014-0.014-0.005-0.037 0.019-0.052 0.034-0.021 0.025-0.046-0.044-0.115s-0.094-0.079-0.115-0.044c-0.015 0.024-0.039 0.031-0.053 0.016s-0.008-0.034 0.014-0.042c0.075-0.027 0.040-0.073-0.056-0.073s-0.131 0.046-0.056 0.073c0.023 0.008 0.028 0.026 0.012 0.043s-0.034 0.012-0.043-0.012c-0.038-0.108-0.201 0-0.201 0.134 0 0.045-0.014 0.082-0.032 0.082s-0.032-0.023-0.032-0.050c0-0.070-0.102-0.17-0.12-0.117-0.017 0.050-0.872 0.058-0.872 0.008 0-0.020 0.164-0.032 0.429-0.032 0.313 0 0.434-0.011 0.446-0.040 0.012-0.030 0.024-0.029 0.049 0.007 0.018 0.026 0.042 0.037 0.054 0.026 0.121-0.121 0.135-0.121-5.14-0.121h-5.062l-0.060 0.069c-0.033 0.038-0.070 0.059-0.083 0.046s-0.002-0.036 0.023-0.051 0.036-0.039 0.023-0.051-0.050 0.008-0.083 0.046c-0.066 0.077-0.151 0.091-0.173 0.029-0.008-0.023-0.026-0.028-0.043-0.012s-0.012 0.034 0.012 0.043c0.054 0.019 0.051 0.099-0.006 0.155-0.067 0.067-0.082 0.057-0.082-0.050 0-0.075-0.014-0.096-0.064-0.096-0.035 0-0.064-0.014-0.064-0.032s-0.072-0.032-0.16-0.032c-0.088 0-0.16-0.014-0.16-0.032 0-0.064-0.187-0.035-0.208 0.032-0.013 0.042-0.048 0.064-0.1 0.064-0.103 0-0.201 0.090-0.14 0.128 0.034 0.021 0.032 0.037-0.012 0.081-0.030 0.030-0.065 0.044-0.077 0.031s-0.004-0.031 0.018-0.038c0.063-0.023 0.047-0.073-0.024-0.073-0.035 0-0.064 0.014-0.064 0.032s-0.014 0.032-0.032 0.032c-0.018 0-0.032-0.029-0.032-0.064s0.014-0.064 0.032-0.064c0.018 0 0.032-0.014 0.032-0.032 0-0.047-0.184-0.039-0.203 0.008-0.012 0.031-0.024 0.029-0.048-0.005-0.027-0.038-0.040-0.036-0.088 0.011s-0.049 0.061-0.011 0.085c0.039 0.025 0.038 0.034-0.003 0.061-0.043 0.028-0.043 0.036 0 0.064s0.043 0.036 0 0.064c-0.043 0.028-0.043 0.036 0 0.066 0.036 0.026 0.038 0.038 0.008 0.051-0.074 0.030-0.051 0.243 0.024 0.219 0.053-0.017 0.064-0.006 0.064 0.062 0 0.095 0.017 0.102 0.087 0.031 0.043-0.043 0.044-0.056 0.006-0.083-0.035-0.025-0.032-0.028 0.013-0.013 0.032 0.010 0.079 0.019 0.104 0.019s0.045 0.014 0.045 0.032c0 0.018-0.026 0.032-0.057 0.032s-0.078 0.029-0.103 0.064c-0.027 0.038-0.083 0.064-0.135 0.064h-0.089v3.168c0 2.85 0.011 3.312 0.072 3.128 0.010-0.029 0.028-0.025 0.067 0.014 0.084 0.084 0.065 0.122-0.051 0.102-0.080-0.014-0.093-0.010-0.056 0.017 0.043 0.031 0.043 0.038 0 0.067s-0.043 0.036 0 0.066c0.036 0.026 0.038 0.038 0.008 0.051-0.057 0.023-0.050 0.075 0.010 0.075 0.076 0 0.142 0.081 0.142 0.174 0 0.094 0.017 0.102 0.082 0.037 0.052-0.052 0.061-0.146 0.014-0.146-0.018 0-0.032-0.014-0.032-0.032s0.043-0.032 0.096-0.032c0.053 0 0.096 0.014 0.096 0.032s-0.014 0.032-0.032 0.032c-0.018 0-0.032 0.043-0.032 0.096 0 0.075 0.014 0.096 0.064 0.096 0.047 0 0.064-0.021 0.064-0.082 0-0.088 0.084-0.197 0.122-0.157 0.012 0.013 0.004 0.031-0.018 0.038-0.122 0.044-0.041 0.201 0.104 0.201 0.079 0 0.144-0.014 0.144-0.032s0.028-0.032 0.061-0.032c0.034 0 0.067-0.018 0.075-0.040 0.018-0.053 0.12 0.047 0.12 0.117 0 0.028 0.014 0.050 0.032 0.050s0.032 0.029 0.032 0.064c0 0.035 0.014 0.064 0.032 0.064s0.032 0.029 0.032 0.064c0 0.088-0.022 0.081-0.136-0.040-0.062-0.066-0.103-0.089-0.112-0.064-0.025 0.073-0.296 0.052-0.296-0.024 0-0.035-0.014-0.064-0.032-0.064s-0.032 0.014-0.032 0.032c0 0.018-0.072 0.032-0.16 0.032s-0.16-0.014-0.16-0.032c0-0.021-1.749-0.032-5.184-0.032h-5.184v-12.128h23.040v2.064zM27.68 12.096c0 1.045-0.011 1.6-0.032 1.6s-0.032-0.555-0.032-1.6c0-1.045 0.011-1.6 0.032-1.6s0.032 0.555 0.032 1.6zM4.384 11.536c0 0.629-0.011 0.976-0.032 0.976s-0.032-0.347-0.032-0.976c0-0.629 0.011-0.976 0.032-0.976s0.032 0.347 0.032 0.976zM14.88 14.577c0 0.010 0.036 0.054 0.080 0.098 0.086 0.086 0.176 0.053 0.176-0.065 0-0.060-0.114-0.068-0.141-0.010-0.015 0.032-0.022 0.032-0.037 0-0.018-0.039-0.077-0.057-0.077-0.023zM15.2 14.592c0 0.018 0.029 0.032 0.064 0.032s0.064-0.014 0.064-0.032c0-0.018-0.029-0.032-0.064-0.032s-0.064 0.014-0.064 0.032zM15.488 14.673c0 0.027-0.037 0.086-0.081 0.131l-0.081 0.081 0.023-0.090c0.036-0.142 0.14-0.233 0.14-0.122zM27.488 14.642c0 0.034 0.099 0.117 0.117 0.099 0.010-0.010-0.004-0.041-0.031-0.068-0.051-0.051-0.086-0.064-0.086-0.031zM15.808 14.72c0 0.018-0.029 0.032-0.064 0.032s-0.064-0.014-0.064-0.032c0-0.018 0.029-0.032 0.064-0.032s0.064 0.014 0.064 0.032zM14.805 14.898c0.045 0.045 0.074 0.090 0.064 0.099-0.017 0.017-0.181-0.131-0.181-0.164 0-0.036 0.037-0.015 0.117 0.064zM15.702 14.866c0.027 0.027 0.041 0.058 0.031 0.068-0.018 0.018-0.117-0.065-0.117-0.099 0-0.032 0.035-0.020 0.086 0.031zM27.488 14.88c0 0.035 0.014 0.064 0.032 0.064s0.032 0.014 0.032 0.032c0 0.018-0.024 0.032-0.052 0.032s-0.079 0.031-0.112 0.069c-0.033 0.038-0.060 0.053-0.060 0.034s0.022-0.056 0.048-0.083c0.026-0.026 0.048-0.085 0.048-0.13s0.014-0.082 0.032-0.082 0.032 0.029 0.032 0.064zM15.2 15.026c0 0.010-0.022 0.041-0.050 0.068-0.062 0.062-0.1 0.031-0.042-0.035 0.044-0.049 0.091-0.067 0.091-0.033zM27.638 15.186c0.027 0.027 0.039 0.060 0.025 0.072s-0.031 0.004-0.038-0.018-0.056-0.040-0.108-0.040c-0.051 0-0.093-0.014-0.093-0.032 0-0.050 0.159-0.037 0.214 0.018zM27.569 15.38c-0.029 0.028-0.062 0.042-0.073 0.030s-0-0.035 0.026-0.051c0.076-0.048 0.104-0.035 0.048 0.021zM27.68 15.52c0 0.018-0.029 0.032-0.064 0.032s-0.064-0.014-0.064-0.032c0-0.018 0.029-0.032 0.064-0.032s0.064 0.014 0.064 0.032zM14.688 15.84c0 0.053-0.014 0.096-0.032 0.096s-0.032-0.043-0.032-0.096c0-0.053 0.014-0.096 0.032-0.096s0.032 0.043 0.032 0.096zM27.552 15.826c0 0.010-0.022 0.041-0.050 0.068-0.062 0.062-0.1 0.031-0.042-0.035 0.044-0.049 0.091-0.067 0.091-0.033zM27.616 16.96c0 0.088-0.014 0.16-0.032 0.16s-0.032-0.072-0.032-0.16c0-0.088 0.014-0.16 0.032-0.16s0.032 0.072 0.032 0.16zM14.816 16.992c0 0.070-0.014 0.128-0.032 0.128s-0.032-0.058-0.032-0.128c0-0.070 0.014-0.128 0.032-0.128s0.032 0.058 0.032 0.128zM27.616 20.096c0 0.088-0.014 0.16-0.032 0.16s-0.032-0.072-0.032-0.16c0-0.088 0.014-0.16 0.032-0.16s0.032 0.072 0.032 0.16zM4.384 21.568c0 0.64-0.011 0.992-0.032 0.992s-0.032-0.352-0.032-0.992c0-0.64 0.011-0.992 0.032-0.992s0.032 0.352 0.032 0.992zM27.616 20.624c0 0.026-0.014 0.048-0.032 0.048s-0.032-0.022-0.032-0.048c0-0.026 0.014-0.048 0.032-0.048s0.032 0.022 0.032 0.048zM14.752 20.864c0 0.070-0.014 0.128-0.032 0.128s-0.032-0.058-0.032-0.128c0-0.070 0.014-0.128 0.032-0.128s0.032 0.058 0.032 0.128zM27.68 21.362c0 0.063-0.091 0.157-0.122 0.125-0.012-0.013-0.004-0.031 0.018-0.038s0.040-0.042 0.040-0.076c0-0.034 0.014-0.061 0.032-0.061s0.032 0.023 0.032 0.050zM27.872 21.522c0 0.010-0.022 0.041-0.050 0.068-0.062 0.062-0.1 0.031-0.042-0.035 0.044-0.049 0.091-0.067 0.091-0.033zM27.68 21.6c0 0.018-0.029 0.032-0.064 0.032s-0.064-0.014-0.064-0.032c0-0.018 0.029-0.032 0.064-0.032s0.064 0.014 0.064 0.032zM27.488 21.728c0 0.018 0.029 0.032 0.064 0.032s0.064 0.014 0.064 0.032c0 0.018-0.024 0.032-0.052 0.032s-0.079 0.031-0.112 0.069c-0.033 0.038-0.070 0.059-0.083 0.046s-0.002-0.038 0.024-0.056c0.036-0.025 0.037-0.037 0.007-0.049-0.067-0.027-0.048-0.139 0.024-0.139 0.035 0 0.064 0.014 0.064 0.032zM27.583 21.983c0.026 0.016 0.037 0.040 0.026 0.051s-0.045-0.002-0.073-0.030c-0.056-0.056-0.028-0.069 0.048-0.021zM27.604 22.194l0.082 0.082-0.067 0.058c-0.037 0.032-0.067 0.096-0.067 0.142 0 0.063-0.016 0.084-0.064 0.084-0.071 0-0.087-0.049-0.024-0.075 0.031-0.012 0.029-0.024-0.005-0.048-0.055-0.038 0.022-0.133 0.107-0.133 0.064 0 0.064-0.023-0.003-0.090-0.039-0.039-0.057-0.043-0.067-0.014-0.016 0.047-0.136 0.054-0.136 0.008 0-0.018 0.029-0.032 0.064-0.032s0.064-0.014 0.064-0.032c0-0.050 0.029-0.038 0.116 0.050zM15.341 22.291c0.038 0.099 0.020 0.141-0.061 0.141-0.044 0-0.080-0.014-0.080-0.032s0.014-0.032 0.032-0.032c0.018 0 0.032-0.029 0.032-0.064 0-0.076 0.049-0.085 0.077-0.013zM27.136 22.336c0 0.043 0.184 0.041 0.198-0.003 0.006-0.019 0.013 0.042 0.015 0.136s-0.004 0.143-0.012 0.109c-0.028-0.11-0.265-0.224-0.265-0.128 0 0.047 0.107 0.124 0.12 0.085 0.019-0.057 0.072-0.049 0.072 0.011 0 0.048-0.072 0.142-0.11 0.142-0.010 0-0.018-0.029-0.018-0.064s-0.014-0.064-0.032-0.064c-0.018 0-0.032 0.023-0.032 0.050 0 0.063-0.091 0.157-0.122 0.125-0.012-0.013-0.004-0.031 0.018-0.038s0.040-0.041 0.040-0.073c0-0.032 0.018-0.066 0.040-0.075 0.030-0.012 0.028-0.025-0.008-0.053s-0.038-0.041-0.008-0.053c0.022-0.009 0.040-0.044 0.040-0.078s0.014-0.061 0.032-0.061 0.032 0.014 0.032 0.032zM16.064 22.429c0 0.034-0.018 0.069-0.040 0.078-0.030 0.012-0.029 0.024 0.007 0.049 0.026 0.018 0.037 0.042 0.026 0.054-0.067 0.067-0.145-0.121-0.081-0.194 0.056-0.063 0.088-0.059 0.088 0.014zM15.872 22.516c0 0.046 0.031 0.111 0.069 0.144s0.061 0.068 0.050 0.079c-0.028 0.028-0.247-0.201-0.247-0.258 0-0.028 0.028-0.049 0.064-0.049 0.048 0 0.064 0.021 0.064 0.084zM26.048 22.464c0 0.018-0.065 0.032-0.144 0.032s-0.144-0.014-0.144-0.032c0-0.018 0.065-0.032 0.144-0.032s0.144 0.014 0.144 0.032zM16.402 22.542c0.067 0.067 0.057 0.082-0.050 0.082-0.106 0-0.115-0.013-0.056-0.080 0.050-0.057 0.051-0.057 0.106-0.002zM26.624 22.592c0 0.019-0.128 0.032-0.32 0.032s-0.32-0.013-0.32-0.032c0-0.019 0.128-0.032 0.32-0.032s0.32 0.013 0.32 0.032zM26.944 22.578c0 0.010-0.022 0.041-0.050 0.068-0.062 0.062-0.1 0.031-0.042-0.035 0.044-0.049 0.091-0.067 0.091-0.033zM15.008 22.784c0 0.018-0.043 0.032-0.096 0.032s-0.096-0.014-0.096-0.032c0-0.018 0.043-0.032 0.096-0.032s0.096 0.014 0.096 0.032zM0.822 26.226c0.027 0.027 0.041 0.058 0.031 0.068-0.018 0.018-0.117-0.065-0.117-0.099 0-0.032 0.035-0.020 0.086 0.031zM31.328 26.194c0 0.010-0.022 0.041-0.050 0.068-0.062 0.062-0.1 0.031-0.042-0.035 0.044-0.049 0.091-0.067 0.091-0.033z"></path>
<path fill="#e8e4e4" d="M0.616 6.608c-0.045 0.052-0.054 0.208-0.012 0.208 0.015 0 0.037-0.043 0.047-0.096 0.014-0.069 0.038-0.096 0.084-0.096 0.036 0 0.065-0.014 0.065-0.032 0-0.048-0.138-0.036-0.184 0.016zM1.312 6.624c0 0.035 0.014 0.064 0.032 0.064s0.032-0.029 0.032-0.064c0-0.035-0.014-0.064-0.032-0.064s-0.032 0.029-0.032 0.064zM2.176 6.624c0 0.055 0.021 0.064 0.16 0.064s0.16-0.009 0.16-0.064c0-0.055-0.021-0.064-0.16-0.064s-0.16 0.009-0.16 0.064zM29.568 6.624c0 0.055 0.021 0.064 0.16 0.064s0.16-0.009 0.16-0.064c0-0.055-0.021-0.064-0.16-0.064s-0.16 0.009-0.16 0.064zM30.688 6.624c0 0.035 0.014 0.064 0.032 0.064s0.032-0.029 0.032-0.064c0-0.035-0.014-0.064-0.032-0.064s-0.032 0.029-0.032 0.064zM31.264 6.592c0 0.018 0.015 0.032 0.034 0.032 0.051 0 0.126 0.084 0.126 0.142 0 0.028 0.014 0.050 0.032 0.050 0.049 0 0.038-0.158-0.014-0.21s-0.178-0.062-0.178-0.014zM0.773 6.803c-0.058 0.066-0.021 0.097 0.042 0.035 0.027-0.027 0.050-0.058 0.050-0.068 0-0.034-0.048-0.016-0.091 0.033zM31.2 6.77c0 0.034 0.099 0.117 0.117 0.099 0.010-0.010-0.004-0.041-0.031-0.068-0.051-0.051-0.086-0.064-0.086-0.031zM0.576 8.192c0 0.092 0.013 0.128 0.048 0.128s0.048-0.036 0.048-0.128c0-0.092-0.013-0.128-0.048-0.128s-0.048 0.036-0.048 0.128zM31.36 8.192c0 0.107 0.011 0.128 0.064 0.128s0.064-0.021 0.064-0.128c0-0.107-0.011-0.128-0.064-0.128s-0.064 0.021-0.064 0.128zM4.512 10.464c0 0.021 3.861 0.032 11.52 0.032s11.52-0.011 11.52-0.032c0-0.021-3.861-0.032-11.52-0.032s-11.52 0.011-11.52 0.032zM27.616 12.096c0 1.045 0.011 1.6 0.032 1.6s0.032-0.555 0.032-1.6c0-1.045-0.011-1.6-0.032-1.6s-0.032 0.555-0.032 1.6zM4.32 11.536c0 0.629 0.011 0.976 0.032 0.976s0.032-0.347 0.032-0.976c0-0.629-0.011-0.976-0.032-0.976s-0.032 0.347-0.032 0.976zM16.512 13.792c0 0.020-0.149 0.032-0.384 0.032s-0.384 0.012-0.384 0.032c0 0.018-0.072 0.032-0.16 0.032s-0.16 0.013-0.16 0.029c0 0.016-0.045 0.039-0.101 0.052-0.112 0.024-0.315 0.209-0.315 0.286 0 0.027-0.014 0.049-0.032 0.049s-0.032 0.029-0.032 0.064c0 0.035-0.014 0.064-0.032 0.064-0.051 0-0.037 0.095 0.021 0.154 0.039 0.039 0.057 0.043 0.067 0.014 0.019-0.058 0.136-0.049 0.136 0.011 0 0.128-0.092 0.152-0.189 0.048s-0.178-0.127-0.206-0.059c-0.012 0.031-0.024 0.029-0.048-0.005-0.038-0.055-0.133 0.022-0.133 0.107 0 0.060 0.052 0.067 0.075 0.010 0.012-0.030 0.025-0.028 0.053 0.008s0.041 0.038 0.053 0.008c0.019-0.047 0.203-0.055 0.203-0.008 0 0.018-0.014 0.032-0.032 0.032s-0.032 0.029-0.032 0.064c0 0.035 0.014 0.064 0.032 0.064s0.032-0.014 0.032-0.032c0-0.018 0.029-0.032 0.064-0.032 0.071 0 0.087 0.050 0.024 0.073-0.022 0.008-0.030 0.025-0.018 0.038s0.047-0 0.077-0.031c0.044-0.044 0.046-0.060 0.012-0.081-0.062-0.038 0.036-0.128 0.14-0.128 0.052 0 0.087-0.022 0.1-0.064 0.021-0.067 0.208-0.096 0.208-0.032 0 0.018 0.072 0.032 0.16 0.032s0.16 0.014 0.16 0.032c0 0.018 0.029 0.032 0.064 0.032 0.050 0 0.064 0.021 0.064 0.096 0 0.107 0.016 0.117 0.082 0.050 0.056-0.056 0.059-0.136 0.006-0.155-0.023-0.008-0.028-0.026-0.012-0.043s0.034-0.012 0.043 0.012c0.022 0.062 0.107 0.047 0.173-0.029 0.033-0.038 0.070-0.059 0.083-0.046s0.002 0.036-0.023 0.051-0.036 0.039-0.023 0.051 0.050-0.008 0.083-0.046l0.060-0.069h5.062c5.275 0 5.261-0 5.14 0.121-0.012 0.012-0.036 0-0.054-0.026-0.025-0.036-0.037-0.037-0.049-0.007-0.012 0.029-0.132 0.040-0.446 0.040-0.265 0-0.429 0.012-0.429 0.032 0 0.050 0.855 0.042 0.872-0.008 0.018-0.053 0.12 0.047 0.12 0.117 0 0.028 0.014 0.050 0.032 0.050s0.032-0.037 0.032-0.082c0-0.133 0.162-0.242 0.201-0.134 0.008 0.023 0.026 0.028 0.043 0.012s0.012-0.034-0.012-0.043c-0.075-0.027-0.040-0.073 0.056-0.073s0.131 0.046 0.056 0.073c-0.022 0.008-0.028 0.027-0.014 0.042s0.038 0.008 0.053-0.016c0.021-0.034 0.046-0.025 0.115 0.044s0.079 0.094 0.044 0.115c-0.024 0.015-0.033 0.038-0.019 0.052 0.030 0.030 0.084-0.049 0.085-0.125 0-0.031-0.021-0.056-0.048-0.056-0.060 0-0.061-0.024-0.002-0.082 0.063-0.062 0.114-0.057 0.114 0.011 0 0.031 0.029 0.078 0.064 0.103s0.064 0.072 0.064 0.103c0 0.031 0.014 0.057 0.032 0.057s0.032-0.028 0.032-0.061c0-0.034 0.018-0.070 0.040-0.080 0.032-0.015 0.032-0.022 0-0.037-0.022-0.010-0.040-0.043-0.040-0.073s-0.029-0.075-0.064-0.1c-0.035-0.025-0.064-0.072-0.064-0.103s-0.014-0.057-0.032-0.057-0.032-0.022-0.032-0.049c0-0.054-0.026-0.089-0.185-0.256-0.058-0.061-0.133-0.11-0.168-0.11s-0.063-0.014-0.063-0.032-0.043-0.032-0.096-0.032c-0.053 0-0.096-0.014-0.096-0.032s-0.058-0.032-0.128-0.032c-0.070 0-0.128-0.014-0.128-0.032 0-0.021-1.696-0.032-5.024-0.032s-5.024 0.011-5.024 0.032zM15.328 14.592c0 0.018-0.029 0.032-0.064 0.032s-0.064-0.014-0.064-0.032c0-0.018 0.029-0.032 0.064-0.032s0.064 0.014 0.064 0.032zM15.405 14.666c-0.019 0.022-0.045 0.080-0.057 0.13l-0.023 0.090 0.081-0.081c0.045-0.045 0.081-0.104 0.081-0.131 0-0.059-0.035-0.062-0.083-0.007zM27.574 14.674c0.027 0.027 0.041 0.058 0.031 0.068-0.018 0.018-0.117-0.065-0.117-0.099 0-0.032 0.035-0.020 0.086 0.031zM15.68 14.72c0 0.018 0.029 0.032 0.064 0.032s0.064-0.014 0.064-0.032c0-0.018-0.029-0.032-0.064-0.032s-0.064 0.014-0.064 0.032zM14.688 14.833c0 0.033 0.164 0.181 0.181 0.164 0.010-0.010-0.019-0.054-0.064-0.099-0.080-0.080-0.117-0.1-0.117-0.064zM15.616 14.834c0 0.034 0.099 0.117 0.117 0.099 0.010-0.010-0.004-0.041-0.031-0.068-0.051-0.051-0.086-0.064-0.086-0.031zM27.424 14.898c0 0.045-0.022 0.104-0.048 0.13s-0.048 0.064-0.048 0.083c0 0.019 0.027 0.004 0.060-0.034s0.083-0.069 0.112-0.069 0.052-0.014 0.052-0.032c0-0.018-0.014-0.032-0.032-0.032s-0.032-0.029-0.032-0.064c0-0.035-0.014-0.064-0.032-0.064s-0.032 0.037-0.032 0.082zM15.109 15.059c-0.058 0.066-0.021 0.097 0.042 0.035 0.027-0.027 0.050-0.058 0.050-0.068 0-0.034-0.048-0.016-0.091 0.033zM27.424 15.168c0 0.018 0.042 0.032 0.093 0.032s0.1 0.018 0.108 0.040 0.025 0.030 0.038 0.018c0.013-0.012 0.002-0.045-0.025-0.072-0.055-0.055-0.214-0.068-0.214-0.018zM14.592 15.36c-0.043 0.028-0.043 0.035 0 0.066 0.036 0.026 0.038 0.038 0.008 0.051-0.072 0.029-0.042 0.075 0.049 0.075 0.052 0 0.108-0.026 0.135-0.064 0.025-0.035 0.072-0.064 0.103-0.064s0.057-0.014 0.057-0.032-0.020-0.032-0.045-0.032c-0.025 0-0.072-0.009-0.104-0.019-0.046-0.015-0.049-0.012-0.013 0.013 0.038 0.027 0.038 0.040-0.006 0.083-0.070 0.070-0.087 0.064-0.087-0.029 0-0.086-0.021-0.097-0.096-0.048zM27.521 15.359c-0.026 0.016-0.037 0.040-0.026 0.051s0.045-0.002 0.073-0.030c0.056-0.056 0.028-0.069-0.048-0.021zM27.552 15.52c0 0.018 0.029 0.032 0.064 0.032s0.064-0.014 0.064-0.032c0-0.018-0.029-0.032-0.064-0.032s-0.064 0.014-0.064 0.032zM14.624 15.84c0 0.053 0.014 0.096 0.032 0.096s0.032-0.043 0.032-0.096c0-0.053-0.014-0.096-0.032-0.096s-0.032 0.043-0.032 0.096zM27.461 15.859c-0.058 0.066-0.021 0.097 0.042 0.035 0.027-0.027 0.050-0.058 0.050-0.068 0-0.034-0.048-0.016-0.091 0.033zM27.552 16.96c0 0.088 0.014 0.16 0.032 0.16s0.032-0.072 0.032-0.16c0-0.088-0.014-0.16-0.032-0.16s-0.032 0.072-0.032 0.16zM14.752 16.992c0 0.070 0.014 0.128 0.032 0.128s0.032-0.058 0.032-0.128c0-0.070-0.014-0.128-0.032-0.128s-0.032 0.058-0.032 0.128zM27.552 20.096c0 0.088 0.014 0.16 0.032 0.16s0.032-0.072 0.032-0.16c0-0.088-0.014-0.16-0.032-0.16s-0.032 0.072-0.032 0.16zM4.32 21.568c0 0.64 0.011 0.992 0.032 0.992s0.032-0.352 0.032-0.992c0-0.64-0.011-0.992-0.032-0.992s-0.032 0.352-0.032 0.992zM27.552 20.624c0 0.026 0.014 0.048 0.032 0.048s0.032-0.022 0.032-0.048c0-0.026-0.014-0.048-0.032-0.048s-0.032 0.022-0.032 0.048zM14.688 20.864c0 0.070 0.014 0.128 0.032 0.128s0.032-0.058 0.032-0.128c0-0.070-0.014-0.128-0.032-0.128s-0.032 0.058-0.032 0.128zM27.616 21.373c0 0.034-0.018 0.068-0.040 0.076s-0.030 0.025-0.018 0.038c0.030 0.032 0.122-0.062 0.122-0.125 0-0.028-0.014-0.050-0.032-0.050s-0.032 0.028-0.032 0.061zM27.781 21.555c-0.058 0.066-0.021 0.097 0.042 0.035 0.027-0.027 0.050-0.058 0.050-0.068 0-0.034-0.048-0.016-0.091 0.033zM27.552 21.6c0 0.018 0.029 0.032 0.064 0.032s0.064-0.014 0.064-0.032c0-0.018-0.029-0.032-0.064-0.032s-0.064 0.014-0.064 0.032zM27.36 21.757c0 0.034 0.018 0.069 0.040 0.078 0.030 0.012 0.029 0.024-0.007 0.049-0.026 0.018-0.037 0.043-0.024 0.056s0.050-0.008 0.083-0.046c0.033-0.038 0.084-0.069 0.112-0.069s0.052-0.014 0.052-0.032c0-0.018-0.029-0.032-0.064-0.032s-0.064-0.014-0.064-0.032c0-0.018-0.029-0.032-0.064-0.032-0.042 0-0.064 0.021-0.064 0.061zM14.597 21.875c-0.051 0.057-0.048 0.061 0.067 0.089 0.098 0.023 0.117-0.020 0.042-0.094-0.055-0.055-0.056-0.055-0.11 0.006zM27.535 22.004c0.029 0.028 0.062 0.042 0.073 0.030s0-0.035-0.026-0.051c-0.076-0.048-0.104-0.035-0.048 0.021zM27.488 22.144c0 0.018-0.029 0.032-0.064 0.032s-0.064 0.014-0.064 0.032c0 0.046 0.12 0.039 0.136-0.008 0.010-0.029 0.028-0.025 0.067 0.014 0.067 0.067 0.068 0.090 0.003 0.090-0.094 0-0.154 0.088-0.098 0.144 0.062 0.062 0.085 0.061 0.085-0.004 0-0.029 0.030-0.078 0.067-0.11l0.067-0.058-0.082-0.082c-0.088-0.088-0.116-0.1-0.116-0.050zM14.56 22.322c0 0.093 0.066 0.174 0.142 0.174 0.064 0 0.068-0.147 0.005-0.21-0.074-0.074-0.146-0.056-0.146 0.037zM14.816 22.272c0 0.018 0.014 0.032 0.032 0.032 0.046 0 0.039 0.119-0.008 0.141-0.032 0.015-0.032 0.022 0 0.037 0.022 0.010 0.040 0.046 0.040 0.080 0 0.052 0.024 0.061 0.16 0.061 0.088 0 0.16-0.014 0.16-0.032s0.014-0.032 0.032-0.032c0.018 0 0.032 0.029 0.032 0.064 0 0.076 0.271 0.097 0.296 0.024 0.009-0.025 0.050-0.002 0.112 0.064 0.114 0.121 0.136 0.128 0.136 0.040 0-0.035-0.014-0.064-0.032-0.064s-0.032-0.029-0.032-0.064c0-0.035-0.014-0.064-0.032-0.064s-0.032-0.023-0.032-0.050c0-0.070-0.102-0.17-0.12-0.117-0.007 0.022-0.041 0.040-0.075 0.040s-0.061 0.014-0.061 0.032-0.065 0.032-0.144 0.032c-0.145 0-0.226-0.157-0.104-0.201 0.022-0.008 0.030-0.025 0.018-0.038-0.037-0.040-0.122 0.069-0.122 0.157 0 0.061-0.017 0.082-0.064 0.082-0.050 0-0.064-0.021-0.064-0.096 0-0.053 0.014-0.096 0.032-0.096s0.032-0.014 0.032-0.032c0-0.018-0.043-0.032-0.096-0.032s-0.096 0.014-0.096 0.032zM15.264 22.304c0 0.035-0.014 0.064-0.032 0.064s-0.032 0.014-0.032 0.032c0 0.018 0.036 0.032 0.080 0.032 0.081 0 0.099-0.042 0.061-0.141-0.027-0.072-0.077-0.063-0.077 0.013zM27.072 22.365c0 0.034-0.018 0.069-0.040 0.078-0.030 0.012-0.028 0.025 0.008 0.053s0.038 0.041 0.008 0.053c-0.022 0.009-0.040 0.043-0.040 0.075s-0.018 0.065-0.040 0.073c-0.022 0.008-0.030 0.025-0.018 0.038 0.030 0.032 0.122-0.062 0.122-0.125 0-0.028 0.014-0.050 0.032-0.050s0.032 0.029 0.032 0.064c0 0.035 0.008 0.064 0.018 0.064 0.038 0 0.11-0.093 0.11-0.142 0-0.060-0.053-0.067-0.072-0.011-0.013 0.038-0.12-0.038-0.12-0.085 0-0.096 0.237 0.018 0.265 0.128 0.009 0.034 0.014-0.015 0.012-0.109s-0.009-0.155-0.015-0.136c-0.015 0.044-0.198 0.046-0.198 0.003 0-0.018-0.014-0.032-0.032-0.032s-0.032 0.028-0.032 0.061zM15.976 22.416c-0.065 0.074 0.013 0.262 0.081 0.194 0.012-0.012 0-0.036-0.026-0.054-0.036-0.025-0.037-0.037-0.007-0.049 0.042-0.017 0.057-0.14 0.016-0.138-0.013 0.001-0.042 0.022-0.064 0.047zM15.744 22.481c0 0.057 0.219 0.286 0.247 0.258 0.010-0.010-0.012-0.046-0.050-0.079s-0.069-0.098-0.069-0.144c0-0.063-0.016-0.084-0.064-0.084-0.036 0-0.064 0.021-0.064 0.049zM25.76 22.464c0 0.018 0.065 0.032 0.144 0.032s0.144-0.014 0.144-0.032c0-0.018-0.065-0.032-0.144-0.032s-0.144 0.014-0.144 0.032zM16.296 22.544c-0.059 0.067-0.050 0.080 0.056 0.080 0.107 0 0.117-0.016 0.050-0.082-0.055-0.055-0.056-0.055-0.106 0.002zM25.984 22.592c0 0.019 0.128 0.032 0.32 0.032s0.32-0.013 0.32-0.032c0-0.019-0.128-0.032-0.32-0.032s-0.32 0.013-0.32 0.032zM26.853 22.611c-0.058 0.066-0.021 0.097 0.042 0.035 0.027-0.027 0.050-0.058 0.050-0.068 0-0.034-0.048-0.016-0.091 0.033zM14.816 22.784c0 0.018 0.043 0.032 0.096 0.032s0.096-0.014 0.096-0.032c0-0.018-0.043-0.032-0.096-0.032s-0.096 0.014-0.096 0.032zM0.576 24.864c0 0.092 0.013 0.128 0.048 0.128s0.048-0.036 0.048-0.128c0-0.092-0.013-0.128-0.048-0.128s-0.048 0.036-0.048 0.128zM31.36 24.864c0 0.107 0.011 0.128 0.064 0.128s0.064-0.021 0.064-0.128c0-0.107-0.011-0.128-0.064-0.128s-0.064 0.021-0.064 0.128zM0.576 25.728c0 0.018 0.022 0.032 0.048 0.032s0.048-0.014 0.048-0.032c0-0.018-0.022-0.032-0.048-0.032s-0.048 0.014-0.048 0.032zM31.36 25.728c0 0.018 0.029 0.032 0.064 0.032s0.064-0.014 0.064-0.032c0-0.018-0.029-0.032-0.064-0.032s-0.064 0.014-0.064 0.032zM0.736 26.194c0 0.034 0.099 0.117 0.117 0.099 0.010-0.010-0.004-0.041-0.031-0.068-0.051-0.051-0.086-0.064-0.086-0.031zM31.237 26.227c-0.058 0.066-0.021 0.097 0.042 0.035 0.027-0.027 0.050-0.058 0.050-0.068 0-0.034-0.048-0.016-0.091 0.033zM0.576 26.322c0 0.045 0.021 0.103 0.046 0.128 0.052 0.052 0.178 0.062 0.178 0.014 0-0.018-0.029-0.032-0.065-0.032-0.046 0-0.070-0.027-0.084-0.096-0.024-0.117-0.075-0.127-0.075-0.014zM31.424 26.29c0 0.057-0.075 0.142-0.126 0.142-0.019 0-0.034 0.014-0.034 0.032 0 0.048 0.126 0.038 0.178-0.014s0.062-0.21 0.014-0.21c-0.018 0-0.032 0.023-0.032 0.050zM1.312 26.432c0 0.035 0.014 0.064 0.032 0.064s0.032-0.029 0.032-0.064c0-0.035-0.014-0.064-0.032-0.064s-0.032 0.029-0.032 0.064zM2.176 26.432c0 0.055 0.021 0.064 0.16 0.064s0.16-0.009 0.16-0.064c0-0.055-0.021-0.064-0.16-0.064s-0.16 0.009-0.16 0.064zM29.568 26.432c0 0.055 0.021 0.064 0.16 0.064s0.16-0.009 0.16-0.064c0-0.055-0.021-0.064-0.16-0.064s-0.16 0.009-0.16 0.064zM30.688 26.432c0 0.035 0.014 0.064 0.032 0.064s0.032-0.029 0.032-0.064c0-0.035-0.014-0.064-0.032-0.064s-0.032 0.029-0.032 0.064z"></path>
</svg>
