<!-- Generated by IcoMoon.io -->
<svg version="1.1" xmlns="http://www.w3.org/2000/svg" width="32" height="32" viewBox="0 0 32 32">
<title>pip</title>
<path d="M26.182 14.545h-11.636v8.727h11.636v-8.727zM32 26.182v-20.393c0-1.6-1.309-2.88-2.909-2.88h-26.182c-1.6 0-2.909 1.28-2.909 2.88v20.393c0 1.6 1.309 2.909 2.909 2.909h26.182c1.6 0 2.909-1.309 2.909-2.909v0zM29.091 26.211h-26.182v-20.436h26.182v20.436z"></path>
<path d="M26.182 14.545h-11.636v8.727h11.636v-8.727zM32 26.182v-20.393c0-1.6-1.309-2.88-2.909-2.88h-26.182c-1.6 0-2.909 1.28-2.909 2.88v20.393c0 1.6 1.309 2.909 2.909 2.909h26.182c1.6 0 2.909-1.309 2.909-2.909v0zM29.091 26.211h-26.182v-20.436h26.182v20.436z"></path>
</svg>
